<svg width="1480" height="1480" viewBox="0 0 1480 1480" fill="none" xmlns="http://www.w3.org/2000/svg">
<line x1="239.997" y1="2.52344" x2="1440" y2="2.52344" stroke="#006CA9" stroke-width="5"/>
<line x1="242.391" y1="5.74182" x2="2.39458" y2="805.718" stroke="#006CA9" stroke-width="5"/>
<line x1="1442.39" y1="5.71836" x2="1202.39" y2="805.718" stroke="#006CA9" stroke-width="5"/>
<line y1="802.477" x2="1200" y2="802.477" stroke="#006CA9" stroke-width="5"/>
<path d="M960 31C969.996 31 979.227 32.4387 986.093 34.8906V34.8916C989.297 36.0381 992.177 37.468 994.395 39.2236L994.829 39.5791L994.831 39.5801C997.087 41.4797 999 44.1405 999 47.5V112.5C999 115.65 997.318 118.185 995.253 120.056L994.835 120.421C992.702 122.221 989.889 123.691 986.729 124.875L986.093 125.108C979.227 127.56 970.001 129 960 129C950.003 129 940.772 127.561 933.906 125.108H933.907C930.703 123.962 927.823 122.532 925.605 120.776L925.171 120.421L925.169 120.42L924.751 120.055C922.682 118.185 921 115.65 921 112.5V47.5C921 44.3503 922.682 41.8145 924.747 39.9443L925.165 39.5791C927.44 37.6594 930.489 36.1144 933.907 34.8916L933.906 34.8906C940.772 32.4385 949.999 31 960 31ZM960 39C950.958 39 942.916 40.277 937.15 42.2363L936.6 42.4277L936.599 42.4287C933.865 43.4052 931.869 44.4677 930.579 45.4834L930.33 45.6855L930.326 45.6895C930.055 45.9211 929.791 46.1624 929.594 46.415C929.393 46.6723 929.184 47.0368 929.184 47.5C929.184 47.9632 929.393 48.3277 929.594 48.585C929.742 48.7744 929.927 48.9573 930.125 49.1348L930.326 49.3105L930.332 49.3164C931.606 50.385 933.675 51.5297 936.599 52.5723V52.5713C942.398 54.6442 950.667 56 960 56C969.042 56 977.084 54.723 982.85 52.7637L983.4 52.5723L983.401 52.5713C986.136 51.5943 988.132 50.5273 989.421 49.5117L989.67 49.3096L989.672 49.3076C989.944 49.0768 990.207 48.8356 990.405 48.583C990.607 48.3259 990.816 47.9614 990.816 47.498C990.816 47.0343 990.606 46.6701 990.404 46.4131C990.256 46.224 990.07 46.0414 989.872 45.8652L989.67 45.6904C988.395 44.6153 986.324 43.4702 983.401 42.4277H983.4C977.601 40.3551 969.333 39 960 39Z" fill="#82D1F5" stroke="#006CA9" stroke-width="2"/>
<path d="M660 31C669.996 31 679.227 32.4387 686.093 34.8906V34.8916C689.297 36.0381 692.177 37.468 694.395 39.2236L694.829 39.5791L694.831 39.5801C697.087 41.4797 699 44.1405 699 47.5V112.5C699 115.65 697.318 118.185 695.253 120.056L694.835 120.421C692.702 122.221 689.889 123.691 686.729 124.875L686.093 125.108C679.227 127.56 670.001 129 660 129C650.003 129 640.772 127.561 633.906 125.108H633.907C630.703 123.962 627.823 122.532 625.605 120.776L625.171 120.421L625.169 120.42L624.751 120.055C622.682 118.185 621 115.65 621 112.5V47.5C621 44.3503 622.682 41.8145 624.747 39.9443L625.165 39.5791C627.44 37.6594 630.489 36.1144 633.907 34.8916L633.906 34.8906C640.772 32.4385 649.999 31 660 31ZM660 39C650.958 39 642.916 40.277 637.15 42.2363L636.6 42.4277L636.599 42.4287C633.865 43.4052 631.869 44.4677 630.579 45.4834L630.33 45.6855L630.326 45.6895C630.055 45.9211 629.791 46.1624 629.594 46.415C629.393 46.6723 629.184 47.0368 629.184 47.5C629.184 47.9632 629.393 48.3277 629.594 48.585C629.742 48.7744 629.927 48.9573 630.125 49.1348L630.326 49.3105L630.332 49.3164C631.606 50.385 633.675 51.5297 636.599 52.5723V52.5713C642.398 54.6442 650.667 56 660 56C669.042 56 677.084 54.723 682.85 52.7637L683.4 52.5723L683.401 52.5713C686.136 51.5943 688.132 50.5273 689.421 49.5117L689.67 49.3096L689.672 49.3076C689.944 49.0768 690.207 48.8356 690.405 48.583C690.607 48.3259 690.816 47.9614 690.816 47.498C690.816 47.0343 690.606 46.6701 690.404 46.4131C690.256 46.224 690.07 46.0414 689.872 45.8652L689.67 45.6904C688.395 44.6153 686.324 43.4702 683.401 42.4277H683.4C677.601 40.3551 669.333 39 660 39Z" fill="#82D1F5" stroke="#006CA9" stroke-width="2"/>
<path d="M810 31C819.996 31 829.227 32.4387 836.093 34.8906V34.8916C839.297 36.0381 842.177 37.468 844.395 39.2236L844.829 39.5791L844.831 39.5801C847.087 41.4797 849 44.1405 849 47.5V112.5C849 115.65 847.318 118.185 845.253 120.056L844.835 120.421C842.702 122.221 839.889 123.691 836.729 124.875L836.093 125.108C829.227 127.56 820.001 129 810 129C800.003 129 790.772 127.561 783.906 125.108H783.907C780.703 123.962 777.823 122.532 775.605 120.776L775.171 120.421L775.169 120.42L774.751 120.055C772.682 118.185 771 115.65 771 112.5V47.5C771 44.3503 772.682 41.8145 774.747 39.9443L775.165 39.5791C777.44 37.6594 780.489 36.1144 783.907 34.8916L783.906 34.8906C790.772 32.4385 799.999 31 810 31ZM810 39C800.958 39 792.916 40.277 787.15 42.2363L786.6 42.4277L786.599 42.4287C783.865 43.4052 781.869 44.4677 780.579 45.4834L780.33 45.6855L780.326 45.6895C780.055 45.9211 779.791 46.1624 779.594 46.415C779.393 46.6723 779.184 47.0368 779.184 47.5C779.184 47.9632 779.393 48.3277 779.594 48.585C779.742 48.7744 779.927 48.9573 780.125 49.1348L780.326 49.3105L780.332 49.3164C781.606 50.385 783.675 51.5297 786.599 52.5723V52.5713C792.398 54.6442 800.667 56 810 56C819.042 56 827.084 54.723 832.85 52.7637L833.4 52.5723L833.401 52.5713C836.136 51.5943 838.132 50.5273 839.421 49.5117L839.67 49.3096L839.672 49.3076C839.944 49.0768 840.207 48.8356 840.405 48.583C840.607 48.3259 840.816 47.9614 840.816 47.498C840.816 47.0343 840.606 46.6701 840.404 46.4131C840.256 46.224 840.07 46.0414 839.872 45.8652L839.67 45.6904C838.395 44.6153 836.324 43.4702 833.401 42.4277H833.4C827.601 40.3551 819.333 39 810 39Z" fill="#82D1F5" stroke="#006CA9" stroke-width="2"/>
<path d="M985 431C994.996 431 1004.23 432.439 1011.09 434.891V434.892C1014.3 436.038 1017.18 437.468 1019.39 439.224L1019.83 439.579L1019.83 439.58C1022.09 441.48 1024 444.141 1024 447.5V512.5C1024 515.65 1022.32 518.185 1020.25 520.056L1019.83 520.421C1017.7 522.221 1014.89 523.691 1011.73 524.875L1011.09 525.108C1004.23 527.56 995.001 529 985 529C975.003 529 965.772 527.561 958.906 525.108H958.907C955.703 523.962 952.823 522.532 950.605 520.776L950.171 520.421L950.169 520.42L949.751 520.055C947.682 518.185 946 515.65 946 512.5V447.5C946 444.35 947.682 441.815 949.747 439.944L950.165 439.579C952.44 437.659 955.489 436.114 958.907 434.892L958.906 434.891C965.772 432.438 974.999 431 985 431ZM985 439C975.958 439 967.916 440.277 962.15 442.236L961.6 442.428L961.599 442.429C958.865 443.405 956.869 444.468 955.579 445.483L955.33 445.686L955.326 445.689C955.055 445.921 954.791 446.162 954.594 446.415C954.393 446.672 954.184 447.037 954.184 447.5C954.184 447.963 954.393 448.328 954.594 448.585C954.742 448.774 954.927 448.957 955.125 449.135L955.326 449.311L955.332 449.316C956.606 450.385 958.675 451.53 961.599 452.572V452.571C967.398 454.644 975.667 456 985 456C994.042 456 1002.08 454.723 1007.85 452.764L1008.4 452.572L1008.4 452.571C1011.14 451.594 1013.13 450.527 1014.42 449.512L1014.67 449.31L1014.67 449.308C1014.94 449.077 1015.21 448.836 1015.41 448.583C1015.61 448.326 1015.82 447.961 1015.82 447.498C1015.82 447.034 1015.61 446.67 1015.4 446.413C1015.26 446.224 1015.07 446.041 1014.87 445.865L1014.67 445.69C1013.4 444.615 1011.32 443.47 1008.4 442.428H1008.4C1002.6 440.355 994.333 439 985 439Z" fill="#82D1F5" stroke="#006CA9" stroke-width="2"/>
<path d="M1135 431C1145 431 1154.23 432.439 1161.09 434.891V434.892C1164.3 436.038 1167.18 437.468 1169.39 439.224L1169.83 439.579L1169.83 439.58C1172.09 441.48 1174 444.141 1174 447.5V512.5C1174 515.65 1172.32 518.185 1170.25 520.056L1169.83 520.421C1167.7 522.221 1164.89 523.691 1161.73 524.875L1161.09 525.108C1154.23 527.56 1145 529 1135 529C1125 529 1115.77 527.561 1108.91 525.108H1108.91C1105.7 523.962 1102.82 522.532 1100.61 520.776L1100.17 520.421L1100.17 520.42L1099.75 520.055C1097.68 518.185 1096 515.65 1096 512.5V447.5C1096 444.35 1097.68 441.815 1099.75 439.944L1100.17 439.579C1102.44 437.659 1105.49 436.114 1108.91 434.892L1108.91 434.891C1115.77 432.438 1125 431 1135 431ZM1135 439C1125.96 439 1117.92 440.277 1112.15 442.236L1111.6 442.428L1111.6 442.429C1108.87 443.405 1106.87 444.468 1105.58 445.483L1105.33 445.686L1105.33 445.689C1105.05 445.921 1104.79 446.162 1104.59 446.415C1104.39 446.672 1104.18 447.037 1104.18 447.5C1104.18 447.963 1104.39 448.328 1104.59 448.585C1104.74 448.774 1104.93 448.957 1105.12 449.135L1105.33 449.311L1105.33 449.316C1106.61 450.385 1108.68 451.53 1111.6 452.572V452.571C1117.4 454.644 1125.67 456 1135 456C1144.04 456 1152.08 454.723 1157.85 452.764L1158.4 452.572L1158.4 452.571C1161.14 451.594 1163.13 450.527 1164.42 449.512L1164.67 449.31L1164.67 449.308C1164.94 449.077 1165.21 448.836 1165.41 448.583C1165.61 448.326 1165.82 447.961 1165.82 447.498C1165.82 447.034 1165.61 446.67 1165.4 446.413C1165.26 446.224 1165.07 446.041 1164.87 445.865L1164.67 445.69C1163.4 444.615 1161.32 443.47 1158.4 442.428H1158.4C1152.6 440.355 1144.33 439 1135 439Z" fill="#82D1F5" stroke="#006CA9" stroke-width="2"/>
<path d="M240 431C249.996 431 259.227 432.439 266.093 434.891V434.892C269.297 436.038 272.177 437.468 274.395 439.224L274.829 439.579L274.831 439.58C277.087 441.48 279 444.141 279 447.5V512.5C279 515.65 277.318 518.185 275.253 520.056L274.835 520.421C272.702 522.221 269.889 523.691 266.729 524.875L266.093 525.108C259.227 527.56 250.001 529 240 529C230.003 529 220.772 527.561 213.906 525.108H213.907C210.703 523.962 207.823 522.532 205.605 520.776L205.171 520.421L205.169 520.42L204.751 520.055C202.682 518.185 201 515.65 201 512.5V447.5C201 444.35 202.682 441.815 204.747 439.944L205.165 439.579C207.44 437.659 210.489 436.114 213.907 434.892L213.906 434.891C220.772 432.438 229.999 431 240 431ZM240 439C230.958 439 222.916 440.277 217.15 442.236L216.6 442.428L216.599 442.429C213.865 443.405 211.869 444.468 210.579 445.483L210.33 445.686L210.326 445.689C210.055 445.921 209.791 446.162 209.594 446.415C209.393 446.672 209.184 447.037 209.184 447.5C209.184 447.963 209.393 448.328 209.594 448.585C209.742 448.774 209.927 448.957 210.125 449.135L210.326 449.311L210.332 449.316C211.606 450.385 213.675 451.53 216.599 452.572V452.571C222.398 454.644 230.667 456 240 456C249.042 456 257.084 454.723 262.85 452.764L263.4 452.572L263.401 452.571C266.136 451.594 268.132 450.527 269.421 449.512L269.67 449.31L269.672 449.308C269.944 449.077 270.207 448.836 270.405 448.583C270.607 448.326 270.816 447.961 270.816 447.498C270.816 447.034 270.606 446.67 270.404 446.413C270.256 446.224 270.07 446.041 269.872 445.865L269.67 445.69C268.395 444.615 266.324 443.47 263.401 442.428H263.4C257.601 440.355 249.333 439 240 439Z" fill="#82D1F5" stroke="#006CA9" stroke-width="2"/>
<path d="M390 431C399.996 431 409.227 432.439 416.093 434.891V434.892C419.297 436.038 422.177 437.468 424.395 439.224L424.829 439.579L424.831 439.58C427.087 441.48 429 444.141 429 447.5V512.5C429 515.65 427.318 518.185 425.253 520.056L424.835 520.421C422.702 522.221 419.889 523.691 416.729 524.875L416.093 525.108C409.227 527.56 400.001 529 390 529C380.003 529 370.772 527.561 363.906 525.108H363.907C360.703 523.962 357.823 522.532 355.605 520.776L355.171 520.421L355.169 520.42L354.751 520.055C352.682 518.185 351 515.65 351 512.5V447.5C351 444.35 352.682 441.815 354.747 439.944L355.165 439.579C357.44 437.659 360.489 436.114 363.907 434.892L363.906 434.891C370.772 432.438 379.999 431 390 431ZM390 439C380.958 439 372.916 440.277 367.15 442.236L366.6 442.428L366.599 442.429C363.865 443.405 361.869 444.468 360.579 445.483L360.33 445.686L360.326 445.689C360.055 445.921 359.791 446.162 359.594 446.415C359.393 446.672 359.184 447.037 359.184 447.5C359.184 447.963 359.393 448.328 359.594 448.585C359.742 448.774 359.927 448.957 360.125 449.135L360.326 449.311L360.332 449.316C361.606 450.385 363.675 451.53 366.599 452.572V452.571C372.398 454.644 380.667 456 390 456C399.042 456 407.084 454.723 412.85 452.764L413.4 452.572L413.401 452.571C416.136 451.594 418.132 450.527 419.421 449.512L419.67 449.31L419.672 449.308C419.944 449.077 420.207 448.836 420.405 448.583C420.607 448.326 420.816 447.961 420.816 447.498C420.816 447.034 420.606 446.67 420.404 446.413C420.256 446.224 420.07 446.041 419.872 445.865L419.67 445.69C418.395 444.615 416.324 443.47 413.401 442.428H413.4C407.601 440.355 399.333 439 390 439Z" fill="#82D1F5" stroke="#006CA9" stroke-width="2"/>
<path d="M1020 331C1030 331 1039.23 332.439 1046.09 334.891V334.892C1049.3 336.038 1052.18 337.468 1054.39 339.224L1054.83 339.579L1054.83 339.58C1057.09 341.48 1059 344.141 1059 347.5V412.5C1059 415.65 1057.32 418.185 1055.25 420.056L1054.83 420.421C1052.7 422.221 1049.89 423.691 1046.73 424.875L1046.09 425.108C1039.23 427.56 1030 429 1020 429C1010 429 1000.77 427.561 993.906 425.108H993.907C990.703 423.962 987.823 422.532 985.605 420.776L985.171 420.421L985.169 420.42L984.751 420.055C982.682 418.185 981 415.65 981 412.5V347.5C981 344.35 982.682 341.815 984.747 339.944L985.165 339.579C987.44 337.659 990.489 336.114 993.907 334.892L993.906 334.891C1000.77 332.438 1010 331 1020 331ZM1020 339C1010.96 339 1002.92 340.277 997.15 342.236L996.6 342.428L996.599 342.429C993.865 343.405 991.869 344.468 990.579 345.483L990.33 345.686L990.326 345.689C990.055 345.921 989.791 346.162 989.594 346.415C989.393 346.672 989.184 347.037 989.184 347.5C989.184 347.963 989.393 348.328 989.594 348.585C989.742 348.774 989.927 348.957 990.125 349.135L990.326 349.311L990.332 349.316C991.606 350.385 993.675 351.53 996.599 352.572V352.571C1002.4 354.644 1010.67 356 1020 356C1029.04 356 1037.08 354.723 1042.85 352.764L1043.4 352.572L1043.4 352.571C1046.14 351.594 1048.13 350.527 1049.42 349.512L1049.67 349.31L1049.67 349.308C1049.94 349.077 1050.21 348.836 1050.41 348.583C1050.61 348.326 1050.82 347.961 1050.82 347.498C1050.82 347.034 1050.61 346.67 1050.4 346.413C1050.26 346.224 1050.07 346.041 1049.87 345.865L1049.67 345.69C1048.4 344.615 1046.32 343.47 1043.4 342.428H1043.4C1037.6 340.355 1029.33 339 1020 339Z" fill="#82D1F5" stroke="#006CA9" stroke-width="2"/>
<path d="M1170 331C1180 331 1189.23 332.439 1196.09 334.891V334.892C1199.3 336.038 1202.18 337.468 1204.39 339.224L1204.83 339.579L1204.83 339.58C1207.09 341.48 1209 344.141 1209 347.5V412.5C1209 415.65 1207.32 418.185 1205.25 420.056L1204.83 420.421C1202.7 422.221 1199.89 423.691 1196.73 424.875L1196.09 425.108C1189.23 427.56 1180 429 1170 429C1160 429 1150.77 427.561 1143.91 425.108H1143.91C1140.7 423.962 1137.82 422.532 1135.61 420.776L1135.17 420.421L1135.17 420.42L1134.75 420.055C1132.68 418.185 1131 415.65 1131 412.5V347.5C1131 344.35 1132.68 341.815 1134.75 339.944L1135.17 339.579C1137.44 337.659 1140.49 336.114 1143.91 334.892L1143.91 334.891C1150.77 332.438 1160 331 1170 331ZM1170 339C1160.96 339 1152.92 340.277 1147.15 342.236L1146.6 342.428L1146.6 342.429C1143.87 343.405 1141.87 344.468 1140.58 345.483L1140.33 345.686L1140.33 345.689C1140.05 345.921 1139.79 346.162 1139.59 346.415C1139.39 346.672 1139.18 347.037 1139.18 347.5C1139.18 347.963 1139.39 348.328 1139.59 348.585C1139.74 348.774 1139.93 348.957 1140.12 349.135L1140.33 349.311L1140.33 349.316C1141.61 350.385 1143.68 351.53 1146.6 352.572V352.571C1152.4 354.644 1160.67 356 1170 356C1179.04 356 1187.08 354.723 1192.85 352.764L1193.4 352.572L1193.4 352.571C1196.14 351.594 1198.13 350.527 1199.42 349.512L1199.67 349.31L1199.67 349.308C1199.94 349.077 1200.21 348.836 1200.41 348.583C1200.61 348.326 1200.82 347.961 1200.82 347.498C1200.82 347.034 1200.61 346.67 1200.4 346.413C1200.26 346.224 1200.07 346.041 1199.87 345.865L1199.67 345.69C1198.4 344.615 1196.32 343.47 1193.4 342.428H1193.4C1187.6 340.355 1179.33 339 1170 339Z" fill="#82D1F5" stroke="#006CA9" stroke-width="2"/>
<path d="M270 331C279.996 331 289.227 332.439 296.093 334.891V334.892C299.297 336.038 302.177 337.468 304.395 339.224L304.829 339.579L304.831 339.58C307.087 341.48 309 344.141 309 347.5V412.5C309 415.65 307.318 418.185 305.253 420.056L304.835 420.421C302.702 422.221 299.889 423.691 296.729 424.875L296.093 425.108C289.227 427.56 280.001 429 270 429C260.003 429 250.772 427.561 243.906 425.108H243.907C240.703 423.962 237.823 422.532 235.605 420.776L235.171 420.421L235.169 420.42L234.751 420.055C232.682 418.185 231 415.65 231 412.5V347.5C231 344.35 232.682 341.815 234.747 339.944L235.165 339.579C237.44 337.659 240.489 336.114 243.907 334.892L243.906 334.891C250.772 332.438 259.999 331 270 331ZM270 339C260.958 339 252.916 340.277 247.15 342.236L246.6 342.428L246.599 342.429C243.865 343.405 241.869 344.468 240.579 345.483L240.33 345.686L240.326 345.689C240.055 345.921 239.791 346.162 239.594 346.415C239.393 346.672 239.184 347.037 239.184 347.5C239.184 347.963 239.393 348.328 239.594 348.585C239.742 348.774 239.927 348.957 240.125 349.135L240.326 349.311L240.332 349.316C241.606 350.385 243.675 351.53 246.599 352.572V352.571C252.398 354.644 260.667 356 270 356C279.042 356 287.084 354.723 292.85 352.764L293.4 352.572L293.401 352.571C296.136 351.594 298.132 350.527 299.421 349.512L299.67 349.31L299.672 349.308C299.944 349.077 300.207 348.836 300.405 348.583C300.607 348.326 300.816 347.961 300.816 347.498C300.816 347.034 300.606 346.67 300.404 346.413C300.256 346.224 300.07 346.041 299.872 345.865L299.67 345.69C298.395 344.615 296.324 343.47 293.401 342.428H293.4C287.601 340.355 279.333 339 270 339Z" fill="#82D1F5" stroke="#006CA9" stroke-width="2"/>
<path d="M420 331C429.996 331 439.227 332.439 446.093 334.891V334.892C449.297 336.038 452.177 337.468 454.395 339.224L454.829 339.579L454.831 339.58C457.087 341.48 459 344.141 459 347.5V412.5C459 415.65 457.318 418.185 455.253 420.056L454.835 420.421C452.702 422.221 449.889 423.691 446.729 424.875L446.093 425.108C439.227 427.56 430.001 429 420 429C410.003 429 400.772 427.561 393.906 425.108H393.907C390.703 423.962 387.823 422.532 385.605 420.776L385.171 420.421L385.169 420.42L384.751 420.055C382.682 418.185 381 415.65 381 412.5V347.5C381 344.35 382.682 341.815 384.747 339.944L385.165 339.579C387.44 337.659 390.489 336.114 393.907 334.892L393.906 334.891C400.772 332.438 409.999 331 420 331ZM420 339C410.958 339 402.916 340.277 397.15 342.236L396.6 342.428L396.599 342.429C393.865 343.405 391.869 344.468 390.579 345.483L390.33 345.686L390.326 345.689C390.055 345.921 389.791 346.162 389.594 346.415C389.393 346.672 389.184 347.037 389.184 347.5C389.184 347.963 389.393 348.328 389.594 348.585C389.742 348.774 389.927 348.957 390.125 349.135L390.326 349.311L390.332 349.316C391.606 350.385 393.675 351.53 396.599 352.572V352.571C402.398 354.644 410.667 356 420 356C429.042 356 437.084 354.723 442.85 352.764L443.4 352.572L443.401 352.571C446.136 351.594 448.132 350.527 449.421 349.512L449.67 349.31L449.672 349.308C449.944 349.077 450.207 348.836 450.405 348.583C450.607 348.326 450.816 347.961 450.816 347.498C450.816 347.034 450.606 346.67 450.404 346.413C450.256 346.224 450.07 346.041 449.872 345.865L449.67 345.69C448.395 344.615 446.324 343.47 443.401 342.428H443.4C437.601 340.355 429.333 339 420 339Z" fill="#82D1F5" stroke="#006CA9" stroke-width="2"/>
<path d="M1050 231C1060 231 1069.23 232.439 1076.09 234.891V234.892C1079.3 236.038 1082.18 237.468 1084.39 239.224L1084.83 239.579L1084.83 239.58C1087.09 241.48 1089 244.141 1089 247.5V312.5C1089 315.65 1087.32 318.185 1085.25 320.056L1084.83 320.421C1082.7 322.221 1079.89 323.691 1076.73 324.875L1076.09 325.108C1069.23 327.56 1060 329 1050 329C1040 329 1030.77 327.561 1023.91 325.108H1023.91C1020.7 323.962 1017.82 322.532 1015.61 320.776L1015.17 320.421L1015.17 320.42L1014.75 320.055C1012.68 318.185 1011 315.65 1011 312.5V247.5C1011 244.35 1012.68 241.815 1014.75 239.944L1015.17 239.579C1017.44 237.659 1020.49 236.114 1023.91 234.892L1023.91 234.891C1030.77 232.438 1040 231 1050 231ZM1050 239C1040.96 239 1032.92 240.277 1027.15 242.236L1026.6 242.428L1026.6 242.429C1023.87 243.405 1021.87 244.468 1020.58 245.483L1020.33 245.686L1020.33 245.689C1020.05 245.921 1019.79 246.162 1019.59 246.415C1019.39 246.672 1019.18 247.037 1019.18 247.5C1019.18 247.963 1019.39 248.328 1019.59 248.585C1019.74 248.774 1019.93 248.957 1020.12 249.135L1020.33 249.311L1020.33 249.316C1021.61 250.385 1023.68 251.53 1026.6 252.572V252.571C1032.4 254.644 1040.67 256 1050 256C1059.04 256 1067.08 254.723 1072.85 252.764L1073.4 252.572L1073.4 252.571C1076.14 251.594 1078.13 250.527 1079.42 249.512L1079.67 249.31L1079.67 249.308C1079.94 249.077 1080.21 248.836 1080.41 248.583C1080.61 248.326 1080.82 247.961 1080.82 247.498C1080.82 247.034 1080.61 246.67 1080.4 246.413C1080.26 246.224 1080.07 246.041 1079.87 245.865L1079.67 245.69C1078.4 244.615 1076.32 243.47 1073.4 242.428H1073.4C1067.6 240.355 1059.33 239 1050 239Z" fill="#82D1F5" stroke="#006CA9" stroke-width="2"/>
<path d="M1200 231C1210 231 1219.23 232.439 1226.09 234.891V234.892C1229.3 236.038 1232.18 237.468 1234.39 239.224L1234.83 239.579L1234.83 239.58C1237.09 241.48 1239 244.141 1239 247.5V312.5C1239 315.65 1237.32 318.185 1235.25 320.056L1234.83 320.421C1232.7 322.221 1229.89 323.691 1226.73 324.875L1226.09 325.108C1219.23 327.56 1210 329 1200 329C1190 329 1180.77 327.561 1173.91 325.108H1173.91C1170.7 323.962 1167.82 322.532 1165.61 320.776L1165.17 320.421L1165.17 320.42L1164.75 320.055C1162.68 318.185 1161 315.65 1161 312.5V247.5C1161 244.35 1162.68 241.815 1164.75 239.944L1165.17 239.579C1167.44 237.659 1170.49 236.114 1173.91 234.892L1173.91 234.891C1180.77 232.438 1190 231 1200 231ZM1200 239C1190.96 239 1182.92 240.277 1177.15 242.236L1176.6 242.428L1176.6 242.429C1173.87 243.405 1171.87 244.468 1170.58 245.483L1170.33 245.686L1170.33 245.689C1170.05 245.921 1169.79 246.162 1169.59 246.415C1169.39 246.672 1169.18 247.037 1169.18 247.5C1169.18 247.963 1169.39 248.328 1169.59 248.585C1169.74 248.774 1169.93 248.957 1170.12 249.135L1170.33 249.311L1170.33 249.316C1171.61 250.385 1173.68 251.53 1176.6 252.572V252.571C1182.4 254.644 1190.67 256 1200 256C1209.04 256 1217.08 254.723 1222.85 252.764L1223.4 252.572L1223.4 252.571C1226.14 251.594 1228.13 250.527 1229.42 249.512L1229.67 249.31L1229.67 249.308C1229.94 249.077 1230.21 248.836 1230.41 248.583C1230.61 248.326 1230.82 247.961 1230.82 247.498C1230.82 247.034 1230.61 246.67 1230.4 246.413C1230.26 246.224 1230.07 246.041 1229.87 245.865L1229.67 245.69C1228.4 244.615 1226.32 243.47 1223.4 242.428H1223.4C1217.6 240.355 1209.33 239 1200 239Z" fill="#82D1F5" stroke="#006CA9" stroke-width="2"/>
<path d="M300 231C309.996 231 319.227 232.439 326.093 234.891V234.892C329.297 236.038 332.177 237.468 334.395 239.224L334.829 239.579L334.831 239.58C337.087 241.48 339 244.141 339 247.5V312.5C339 315.65 337.318 318.185 335.253 320.056L334.835 320.421C332.702 322.221 329.889 323.691 326.729 324.875L326.093 325.108C319.227 327.56 310.001 329 300 329C290.003 329 280.772 327.561 273.906 325.108H273.907C270.703 323.962 267.823 322.532 265.605 320.776L265.171 320.421L265.169 320.42L264.751 320.055C262.682 318.185 261 315.65 261 312.5V247.5C261 244.35 262.682 241.815 264.747 239.944L265.165 239.579C267.44 237.659 270.489 236.114 273.907 234.892L273.906 234.891C280.772 232.438 289.999 231 300 231ZM300 239C290.958 239 282.916 240.277 277.15 242.236L276.6 242.428L276.599 242.429C273.865 243.405 271.869 244.468 270.579 245.483L270.33 245.686L270.326 245.689C270.055 245.921 269.791 246.162 269.594 246.415C269.393 246.672 269.184 247.037 269.184 247.5C269.184 247.963 269.393 248.328 269.594 248.585C269.742 248.774 269.927 248.957 270.125 249.135L270.326 249.311L270.332 249.316C271.606 250.385 273.675 251.53 276.599 252.572V252.571C282.398 254.644 290.667 256 300 256C309.042 256 317.084 254.723 322.85 252.764L323.4 252.572L323.401 252.571C326.136 251.594 328.132 250.527 329.421 249.512L329.67 249.31L329.672 249.308C329.944 249.077 330.207 248.836 330.405 248.583C330.607 248.326 330.816 247.961 330.816 247.498C330.816 247.034 330.606 246.67 330.404 246.413C330.256 246.224 330.07 246.041 329.872 245.865L329.67 245.69C328.395 244.615 326.324 243.47 323.401 242.428H323.4C317.601 240.355 309.333 239 300 239Z" fill="#82D1F5" stroke="#006CA9" stroke-width="2"/>
<path d="M450 231C459.996 231 469.227 232.439 476.093 234.891V234.892C479.297 236.038 482.177 237.468 484.395 239.224L484.829 239.579L484.831 239.58C487.087 241.48 489 244.141 489 247.5V312.5C489 315.65 487.318 318.185 485.253 320.056L484.835 320.421C482.702 322.221 479.889 323.691 476.729 324.875L476.093 325.108C469.227 327.56 460.001 329 450 329C440.003 329 430.772 327.561 423.906 325.108H423.907C420.703 323.962 417.823 322.532 415.605 320.776L415.171 320.421L415.169 320.42L414.751 320.055C412.682 318.185 411 315.65 411 312.5V247.5C411 244.35 412.682 241.815 414.747 239.944L415.165 239.579C417.44 237.659 420.489 236.114 423.907 234.892L423.906 234.891C430.772 232.438 439.999 231 450 231ZM450 239C440.958 239 432.916 240.277 427.15 242.236L426.6 242.428L426.599 242.429C423.865 243.405 421.869 244.468 420.579 245.483L420.33 245.686L420.326 245.689C420.055 245.921 419.791 246.162 419.594 246.415C419.393 246.672 419.184 247.037 419.184 247.5C419.184 247.963 419.393 248.328 419.594 248.585C419.742 248.774 419.927 248.957 420.125 249.135L420.326 249.311L420.332 249.316C421.606 250.385 423.675 251.53 426.599 252.572V252.571C432.398 254.644 440.667 256 450 256C459.042 256 467.084 254.723 472.85 252.764L473.4 252.572L473.401 252.571C476.136 251.594 478.132 250.527 479.421 249.512L479.67 249.31L479.672 249.308C479.944 249.077 480.207 248.836 480.405 248.583C480.607 248.326 480.816 247.961 480.816 247.498C480.816 247.034 480.606 246.67 480.404 246.413C480.256 246.224 480.07 246.041 479.872 245.865L479.67 245.69C478.395 244.615 476.324 243.47 473.401 242.428H473.4C467.601 240.355 459.333 239 450 239Z" fill="#82D1F5" stroke="#006CA9" stroke-width="2"/>
<path d="M930 131C939.996 131 949.227 132.439 956.093 134.891V134.892C959.297 136.038 962.177 137.468 964.395 139.224L964.829 139.579L964.831 139.58C967.087 141.48 969 144.141 969 147.5V212.5C969 215.65 967.318 218.185 965.253 220.056L964.835 220.421C962.702 222.221 959.889 223.691 956.729 224.875L956.093 225.108C949.227 227.56 940.001 229 930 229C920.003 229 910.772 227.561 903.906 225.108H903.907C900.703 223.962 897.823 222.532 895.605 220.776L895.171 220.421L895.169 220.42L894.751 220.055C892.682 218.185 891 215.65 891 212.5V147.5C891 144.35 892.682 141.815 894.747 139.944L895.165 139.579C897.44 137.659 900.489 136.114 903.907 134.892L903.906 134.891C910.772 132.438 919.999 131 930 131ZM930 139C920.958 139 912.916 140.277 907.15 142.236L906.6 142.428L906.599 142.429C903.865 143.405 901.869 144.468 900.579 145.483L900.33 145.686L900.326 145.689C900.055 145.921 899.791 146.162 899.594 146.415C899.393 146.672 899.184 147.037 899.184 147.5C899.184 147.963 899.393 148.328 899.594 148.585C899.742 148.774 899.927 148.957 900.125 149.135L900.326 149.311L900.332 149.316C901.606 150.385 903.675 151.53 906.599 152.572V152.571C912.398 154.644 920.667 156 930 156C939.042 156 947.084 154.723 952.85 152.764L953.4 152.572L953.401 152.571C956.136 151.594 958.132 150.527 959.421 149.512L959.67 149.31L959.672 149.308C959.944 149.077 960.207 148.836 960.405 148.583C960.607 148.326 960.816 147.961 960.816 147.498C960.816 147.034 960.606 146.67 960.404 146.413C960.256 146.224 960.07 146.041 959.872 145.865L959.67 145.69C958.395 144.615 956.324 143.47 953.401 142.428H953.4C947.601 140.355 939.333 139 930 139Z" fill="#82D1F5" stroke="#006CA9" stroke-width="2"/>
<path d="M630 131C639.996 131 649.227 132.439 656.093 134.891V134.892C659.297 136.038 662.177 137.468 664.395 139.224L664.829 139.579L664.831 139.58C667.087 141.48 669 144.141 669 147.5V212.5C669 215.65 667.318 218.185 665.253 220.056L664.835 220.421C662.702 222.221 659.889 223.691 656.729 224.875L656.093 225.108C649.227 227.56 640.001 229 630 229C620.003 229 610.772 227.561 603.906 225.108H603.907C600.703 223.962 597.823 222.532 595.605 220.776L595.171 220.421L595.169 220.42L594.751 220.055C592.682 218.185 591 215.65 591 212.5V147.5C591 144.35 592.682 141.815 594.747 139.944L595.165 139.579C597.44 137.659 600.489 136.114 603.907 134.892L603.906 134.891C610.772 132.438 619.999 131 630 131ZM630 139C620.958 139 612.916 140.277 607.15 142.236L606.6 142.428L606.599 142.429C603.865 143.405 601.869 144.468 600.579 145.483L600.33 145.686L600.326 145.689C600.055 145.921 599.791 146.162 599.594 146.415C599.393 146.672 599.184 147.037 599.184 147.5C599.184 147.963 599.393 148.328 599.594 148.585C599.742 148.774 599.927 148.957 600.125 149.135L600.326 149.311L600.332 149.316C601.606 150.385 603.675 151.53 606.599 152.572V152.571C612.398 154.644 620.667 156 630 156C639.042 156 647.084 154.723 652.85 152.764L653.4 152.572L653.401 152.571C656.136 151.594 658.132 150.527 659.421 149.512L659.67 149.31L659.672 149.308C659.944 149.077 660.207 148.836 660.405 148.583C660.607 148.326 660.816 147.961 660.816 147.498C660.816 147.034 660.606 146.67 660.404 146.413C660.256 146.224 660.07 146.041 659.872 145.865L659.67 145.69C658.395 144.615 656.324 143.47 653.401 142.428H653.4C647.601 140.355 639.333 139 630 139Z" fill="#82D1F5" stroke="#006CA9" stroke-width="2"/>
<path d="M780 131C789.996 131 799.227 132.439 806.093 134.891V134.892C809.297 136.038 812.177 137.468 814.395 139.224L814.829 139.579L814.831 139.58C817.087 141.48 819 144.141 819 147.5V212.5C819 215.65 817.318 218.185 815.253 220.056L814.835 220.421C812.702 222.221 809.889 223.691 806.729 224.875L806.093 225.108C799.227 227.56 790.001 229 780 229C770.003 229 760.772 227.561 753.906 225.108H753.907C750.703 223.962 747.823 222.532 745.605 220.776L745.171 220.421L745.169 220.42L744.751 220.055C742.682 218.185 741 215.65 741 212.5V147.5C741 144.35 742.682 141.815 744.747 139.944L745.165 139.579C747.44 137.659 750.489 136.114 753.907 134.892L753.906 134.891C760.772 132.438 769.999 131 780 131ZM780 139C770.958 139 762.916 140.277 757.15 142.236L756.6 142.428L756.599 142.429C753.865 143.405 751.869 144.468 750.579 145.483L750.33 145.686L750.326 145.689C750.055 145.921 749.791 146.162 749.594 146.415C749.393 146.672 749.184 147.037 749.184 147.5C749.184 147.963 749.393 148.328 749.594 148.585C749.742 148.774 749.927 148.957 750.125 149.135L750.326 149.311L750.332 149.316C751.606 150.385 753.675 151.53 756.599 152.572V152.571C762.398 154.644 770.667 156 780 156C789.042 156 797.084 154.723 802.85 152.764L803.4 152.572L803.401 152.571C806.136 151.594 808.132 150.527 809.421 149.512L809.67 149.31L809.672 149.308C809.944 149.077 810.207 148.836 810.405 148.583C810.607 148.326 810.816 147.961 810.816 147.498C810.816 147.034 810.606 146.67 810.404 146.413C810.256 146.224 810.07 146.041 809.872 145.865L809.67 145.69C808.395 144.615 806.324 143.47 803.401 142.428H803.4C797.601 140.355 789.333 139 780 139Z" fill="#82D1F5" stroke="#006CA9" stroke-width="2"/>
<path d="M780 640C789.996 640 799.227 641.439 806.093 643.891V643.892C809.297 645.038 812.177 646.468 814.395 648.224L814.829 648.579L814.831 648.58C817.087 650.48 819 653.141 819 656.5V721.5C819 724.65 817.318 727.185 815.253 729.056L814.835 729.421C812.702 731.221 809.889 732.691 806.729 733.875L806.093 734.108C799.227 736.56 790.001 738 780 738C770.003 738 760.772 736.561 753.906 734.108H753.907C750.703 732.962 747.823 731.532 745.605 729.776L745.171 729.421L745.169 729.42L744.751 729.055C742.682 727.185 741 724.65 741 721.5V656.5C741 653.35 742.682 650.815 744.747 648.944L745.165 648.579C747.44 646.659 750.489 645.114 753.907 643.892L753.906 643.891C760.772 641.438 769.999 640 780 640ZM780 648C770.958 648 762.916 649.277 757.15 651.236L756.6 651.428L756.599 651.429C753.865 652.405 751.869 653.468 750.579 654.483L750.33 654.686L750.326 654.689C750.055 654.921 749.791 655.162 749.594 655.415C749.393 655.672 749.184 656.037 749.184 656.5C749.184 656.963 749.393 657.328 749.594 657.585C749.742 657.774 749.927 657.957 750.125 658.135L750.326 658.311L750.332 658.316C751.606 659.385 753.675 660.53 756.599 661.572V661.571C762.398 663.644 770.667 665 780 665C789.042 665 797.084 663.723 802.85 661.764L803.4 661.572L803.401 661.571C806.136 660.594 808.132 659.527 809.421 658.512L809.67 658.31L809.672 658.308C809.944 658.077 810.207 657.836 810.405 657.583C810.607 657.326 810.816 656.961 810.816 656.498C810.816 656.034 810.606 655.67 810.404 655.413C810.256 655.224 810.07 655.041 809.872 654.865L809.67 654.69C808.395 653.615 806.324 652.47 803.401 651.428H803.4C797.601 649.355 789.333 648 780 648Z" fill="#82D1F5" stroke="#006CA9" stroke-width="2"/>
<path d="M480 640C489.996 640 499.227 641.439 506.093 643.891V643.892C509.297 645.038 512.177 646.468 514.395 648.224L514.829 648.579L514.831 648.58C517.087 650.48 519 653.141 519 656.5V721.5C519 724.65 517.318 727.185 515.253 729.056L514.835 729.421C512.702 731.221 509.889 732.691 506.729 733.875L506.093 734.108C499.227 736.56 490.001 738 480 738C470.003 738 460.772 736.561 453.906 734.108H453.907C450.703 732.962 447.823 731.532 445.605 729.776L445.171 729.421L445.169 729.42L444.751 729.055C442.682 727.185 441 724.65 441 721.5V656.5C441 653.35 442.682 650.815 444.747 648.944L445.165 648.579C447.44 646.659 450.489 645.114 453.907 643.892L453.906 643.891C460.772 641.438 469.999 640 480 640ZM480 648C470.958 648 462.916 649.277 457.15 651.236L456.6 651.428L456.599 651.429C453.865 652.405 451.869 653.468 450.579 654.483L450.33 654.686L450.326 654.689C450.055 654.921 449.791 655.162 449.594 655.415C449.393 655.672 449.184 656.037 449.184 656.5C449.184 656.963 449.393 657.328 449.594 657.585C449.742 657.774 449.927 657.957 450.125 658.135L450.326 658.311L450.332 658.316C451.606 659.385 453.675 660.53 456.599 661.572V661.571C462.398 663.644 470.667 665 480 665C489.042 665 497.084 663.723 502.85 661.764L503.4 661.572L503.401 661.571C506.136 660.594 508.132 659.527 509.421 658.512L509.67 658.31L509.672 658.308C509.944 658.077 510.207 657.836 510.405 657.583C510.607 657.326 510.816 656.961 510.816 656.498C510.816 656.034 510.606 655.67 510.404 655.413C510.256 655.224 510.07 655.041 509.872 654.865L509.67 654.69C508.395 653.615 506.324 652.47 503.401 651.428H503.4C497.601 649.355 489.333 648 480 648Z" fill="#82D1F5" stroke="#006CA9" stroke-width="2"/>
<mask id="path-25-inside-1_1194_67" fill="white">
<path fill-rule="evenodd" clip-rule="evenodd" d="M632.97 745.288L632.91 745.298L632.555 745.473L632.455 745.493L632.385 745.473L632.03 745.293C631.977 745.28 631.937 745.29 631.91 745.323L631.89 745.373L631.805 747.513L631.83 747.613L631.88 747.678L632.4 748.048L632.475 748.068L632.535 748.048L633.055 747.678L633.115 747.598L633.135 747.513L633.05 745.378C633.037 745.325 633.01 745.295 632.97 745.288ZM634.29 744.723L634.22 744.733L633.3 745.198L633.25 745.248L633.235 745.303L633.325 747.453L633.35 747.513L633.39 747.553L634.395 748.013C634.458 748.03 634.507 748.017 634.54 747.973L634.56 747.903L634.39 744.833C634.373 744.77 634.34 744.733 634.29 744.723ZM630.715 744.733C630.693 744.72 630.667 744.716 630.641 744.721C630.616 744.727 630.594 744.742 630.58 744.763L630.55 744.833L630.38 747.903C630.383 747.963 630.412 748.003 630.465 748.023L630.54 748.013L631.545 747.548L631.595 747.508L631.61 747.453L631.7 745.303L631.685 745.243L631.635 745.193L630.715 744.733Z"/>
</mask>
<path fill-rule="evenodd" clip-rule="evenodd" d="M632.97 745.288L632.91 745.298L632.555 745.473L632.455 745.493L632.385 745.473L632.03 745.293C631.977 745.28 631.937 745.29 631.91 745.323L631.89 745.373L631.805 747.513L631.83 747.613L631.88 747.678L632.4 748.048L632.475 748.068L632.535 748.048L633.055 747.678L633.115 747.598L633.135 747.513L633.05 745.378C633.037 745.325 633.01 745.295 632.97 745.288ZM634.29 744.723L634.22 744.733L633.3 745.198L633.25 745.248L633.235 745.303L633.325 747.453L633.35 747.513L633.39 747.553L634.395 748.013C634.458 748.03 634.507 748.017 634.54 747.973L634.56 747.903L634.39 744.833C634.373 744.77 634.34 744.733 634.29 744.723ZM630.715 744.733C630.693 744.72 630.667 744.716 630.641 744.721C630.616 744.727 630.594 744.742 630.58 744.763L630.55 744.833L630.38 747.903C630.383 747.963 630.412 748.003 630.465 748.023L630.54 748.013L631.545 747.548L631.595 747.508L631.61 747.453L631.7 745.303L631.685 745.243L631.635 745.193L630.715 744.733Z" fill="#82D1F5"/>
<path d="M632.97 745.288L633.299 743.315L632.97 743.261L632.641 743.315L632.97 745.288ZM632.91 745.298L632.581 743.325L632.29 743.374L632.026 743.504L632.91 745.298ZM632.555 745.473L632.947 747.434L633.204 747.383L633.439 747.267L632.555 745.473ZM632.455 745.493L631.905 747.416L632.372 747.549L632.847 747.454L632.455 745.493ZM632.385 745.473L631.48 747.257L631.651 747.344L631.835 747.396L632.385 745.473ZM632.03 745.293L632.934 743.509L632.733 743.408L632.515 743.353L632.03 745.293ZM631.91 745.323L630.348 744.074L630.163 744.305L630.053 744.581L631.91 745.323ZM631.89 745.373L630.033 744.631L629.905 744.95L629.891 745.294L631.89 745.373ZM631.805 747.513L629.806 747.434L629.795 747.72L629.865 747.998L631.805 747.513ZM631.83 747.613L629.89 748.098L629.991 748.502L630.245 748.833L631.83 747.613ZM631.88 747.678L630.295 748.898L630.477 749.135L630.72 749.308L631.88 747.678ZM632.4 748.048L631.24 749.678L631.535 749.888L631.885 749.981L632.4 748.048ZM632.475 748.068L631.96 750.001L632.539 750.155L633.107 749.966L632.475 748.068ZM632.535 748.048L633.167 749.946L633.451 749.851L633.694 749.678L632.535 748.048ZM633.055 747.678L634.214 749.308L634.468 749.127L634.655 748.878L633.055 747.678ZM633.115 747.598L634.715 748.798L634.966 748.464L635.062 748.056L633.115 747.598ZM633.135 747.513L635.082 747.971L635.144 747.706L635.133 747.434L633.135 747.513ZM633.05 745.378L635.048 745.299L635.04 745.093L634.99 744.893L633.05 745.378ZM634.29 744.723L634.682 742.762L634.346 742.695L634.007 742.743L634.29 744.723ZM634.22 744.733L633.937 742.753L633.611 742.8L633.318 742.948L634.22 744.733ZM633.3 745.198L632.398 743.413L632.112 743.558L631.886 743.784L633.3 745.198ZM633.25 745.248L631.836 743.834L631.46 744.21L631.32 744.722L633.25 745.248ZM633.235 745.303L631.305 744.777L631.224 745.077L631.237 745.387L633.235 745.303ZM633.325 747.453L631.327 747.537L631.342 747.893L631.479 748.223L633.325 747.453ZM633.35 747.513L631.504 748.283L631.656 748.648L631.936 748.927L633.35 747.513ZM633.39 747.553L631.976 748.967L632.23 749.222L632.558 749.372L633.39 747.553ZM634.395 748.013L633.563 749.832L633.719 749.904L633.886 749.947L634.395 748.013ZM634.54 747.973L636.125 749.193L636.358 748.89L636.463 748.523L634.54 747.973ZM634.56 747.903L636.483 748.453L636.575 748.129L636.557 747.793L634.56 747.903ZM634.39 744.833L636.387 744.723L636.376 744.52L636.324 744.324L634.39 744.833ZM630.715 744.733L629.678 746.444L629.748 746.486L629.82 746.522L630.715 744.733ZM630.58 744.763L628.916 743.653L628.814 743.806L628.742 743.975L630.58 744.763ZM630.55 744.833L628.712 744.045L628.572 744.37L628.553 744.723L630.55 744.833ZM630.38 747.903L628.383 747.793L628.377 747.903L628.383 748.014L630.38 747.903ZM630.465 748.023L629.763 749.896L630.232 750.072L630.729 750.006L630.465 748.023ZM630.54 748.013L630.804 749.996L631.105 749.956L631.38 749.828L630.54 748.013ZM631.545 747.548L632.385 749.363L632.605 749.262L632.794 749.11L631.545 747.548ZM631.595 747.508L632.844 749.07L633.353 748.663L633.524 748.034L631.595 747.508ZM631.61 747.453L633.539 747.979L633.599 747.762L633.608 747.537L631.61 747.453ZM631.7 745.303L633.698 745.387L633.71 745.098L633.64 744.818L631.7 745.303ZM631.685 745.243L633.625 744.758L633.491 744.221L633.099 743.829L631.685 745.243ZM631.635 745.193L633.049 743.779L632.82 743.55L632.529 743.404L631.635 745.193ZM632.97 745.288L632.641 743.315L632.581 743.325L632.91 745.298L633.239 747.271L633.299 747.261L632.97 745.288ZM632.91 745.298L632.026 743.504L631.671 743.679L632.555 745.473L633.439 747.267L633.794 747.092L632.91 745.298ZM632.555 745.473L632.163 743.512L632.063 743.532L632.455 745.493L632.847 747.454L632.947 747.434L632.555 745.473ZM632.455 745.493L633.004 743.57L632.934 743.55L632.385 745.473L631.835 747.396L631.905 747.416L632.455 745.493ZM632.385 745.473L633.289 743.689L632.934 743.509L632.03 745.293L631.125 747.077L631.48 747.257L632.385 745.473ZM632.03 745.293L632.515 743.353C632.272 743.292 631.902 743.244 631.475 743.35C631.014 743.466 630.625 743.728 630.348 744.074L631.91 745.323L633.472 746.573C633.222 746.885 632.866 747.126 632.445 747.231C632.058 747.328 631.735 747.281 631.545 747.234L632.03 745.293ZM631.91 745.323L630.053 744.581L630.033 744.631L631.89 745.373L633.747 746.116L633.767 746.066L631.91 745.323ZM631.89 745.373L629.891 745.294L629.806 747.434L631.805 747.513L633.803 747.593L633.888 745.453L631.89 745.373ZM631.805 747.513L629.865 747.998L629.89 748.098L631.83 747.613L633.77 747.128L633.745 747.028L631.805 747.513ZM631.83 747.613L630.245 748.833L630.295 748.898L631.88 747.678L633.465 746.459L633.415 746.394L631.83 747.613ZM631.88 747.678L630.72 749.308L631.24 749.678L632.4 748.048L633.559 746.419L633.039 746.049L631.88 747.678ZM632.4 748.048L631.885 749.981L631.96 750.001L632.475 748.068L632.99 746.136L632.915 746.116L632.4 748.048ZM632.475 748.068L633.107 749.966L633.167 749.946L632.535 748.048L631.902 746.151L631.842 746.171L632.475 748.068ZM632.535 748.048L633.694 749.678L634.214 749.308L633.055 747.678L631.895 746.049L631.375 746.419L632.535 748.048ZM633.055 747.678L634.655 748.878L634.715 748.798L633.115 747.598L631.515 746.398L631.455 746.478L633.055 747.678ZM633.115 747.598L635.062 748.056L635.082 747.971L633.135 747.513L631.188 747.055L631.168 747.14L633.115 747.598ZM633.135 747.513L635.133 747.434L635.048 745.299L633.05 745.378L631.051 745.458L631.136 747.593L633.135 747.513ZM633.05 745.378L634.99 744.893C634.866 744.395 634.411 743.501 633.299 743.315L632.97 745.288L632.641 747.261C632.215 747.19 631.819 746.975 631.525 746.644C631.26 746.346 631.154 746.04 631.11 745.863L633.05 745.378ZM634.29 744.723L634.007 742.743L633.937 742.753L634.22 744.733L634.503 746.713L634.573 746.703L634.29 744.723ZM634.22 744.733L633.318 742.948L632.398 743.413L633.3 745.198L634.202 746.983L635.122 746.518L634.22 744.733ZM633.3 745.198L631.886 743.784L631.836 743.834L633.25 745.248L634.664 746.662L634.714 746.612L633.3 745.198ZM633.25 745.248L631.32 744.722L631.305 744.777L633.235 745.303L635.164 745.829L635.179 745.774L633.25 745.248ZM633.235 745.303L631.237 745.387L631.327 747.537L633.325 747.453L635.323 747.37L635.233 745.22L633.235 745.303ZM633.325 747.453L631.479 748.223L631.504 748.283L633.35 747.513L635.196 746.744L635.171 746.684L633.325 747.453ZM633.35 747.513L631.936 748.927L631.976 748.967L633.39 747.553L634.804 746.139L634.764 746.099L633.35 747.513ZM633.39 747.553L632.558 749.372L633.563 749.832L634.395 748.013L635.227 746.195L634.222 745.735L633.39 747.553ZM634.395 748.013L633.886 749.947C634.157 750.019 634.557 750.069 635.01 749.944C635.492 749.811 635.869 749.526 636.125 749.193L634.54 747.973L632.955 746.754C633.178 746.464 633.514 746.207 633.947 746.088C634.352 745.976 634.696 746.024 634.904 746.079L634.395 748.013ZM634.54 747.973L636.463 748.523L636.483 748.453L634.56 747.903L632.637 747.354L632.617 747.424L634.54 747.973ZM634.56 747.903L636.557 747.793L636.387 744.723L634.39 744.833L632.393 744.944L632.563 748.014L634.56 747.903ZM634.39 744.833L636.324 744.324C636.179 743.772 635.705 742.967 634.682 742.762L634.29 744.723L633.898 746.684C633.517 746.608 633.152 746.411 632.873 746.104C632.614 745.82 632.504 745.526 632.456 745.342L634.39 744.833ZM630.715 744.733L631.751 743.023C631.289 742.742 630.735 742.651 630.208 742.769L630.641 744.721L631.075 746.674C630.598 746.78 630.097 746.697 629.678 746.444L630.715 744.733ZM630.641 744.721L630.208 742.769C629.679 742.886 629.217 743.203 628.916 743.653L630.58 744.763L632.243 745.874C631.971 746.281 631.553 746.567 631.075 746.674L630.641 744.721ZM630.58 744.763L628.742 743.975L628.712 744.045L630.55 744.833L632.388 745.621L632.418 745.551L630.58 744.763ZM630.55 744.833L628.553 744.723L628.383 747.793L630.38 747.903L632.377 748.014L632.547 744.944L630.55 744.833ZM630.38 747.903L628.383 748.014C628.401 748.335 628.495 748.744 628.772 749.134C629.053 749.531 629.424 749.769 629.763 749.896L630.465 748.023L631.167 746.151C631.453 746.258 631.783 746.465 632.036 746.822C632.284 747.172 632.362 747.532 632.377 747.792L630.38 747.903ZM630.465 748.023L630.729 750.006L630.804 749.996L630.54 748.013L630.275 746.031L630.2 746.041L630.465 748.023ZM630.54 748.013L631.38 749.828L632.385 749.363L631.545 747.548L630.705 745.733L629.7 746.198L630.54 748.013ZM631.545 747.548L632.794 749.11L632.844 749.07L631.595 747.508L630.346 745.946L630.296 745.986L631.545 747.548ZM631.595 747.508L633.524 748.034L633.539 747.979L631.61 747.453L629.68 746.927L629.665 746.982L631.595 747.508ZM631.61 747.453L633.608 747.537L633.698 745.387L631.7 745.303L629.702 745.22L629.612 747.37L631.61 747.453ZM631.7 745.303L633.64 744.818L633.625 744.758L631.685 745.243L629.745 745.728L629.76 745.788L631.7 745.303ZM631.685 745.243L633.099 743.829L633.049 743.779L631.635 745.193L630.221 746.607L630.271 746.657L631.685 745.243ZM631.635 745.193L632.529 743.404L631.609 742.944L630.715 744.733L629.82 746.522L630.74 746.982L631.635 745.193Z" fill="#006CA9" mask="url(#path-25-inside-1_1194_67)"/>
<path d="M630 640C639.996 640 649.227 641.439 656.093 643.891V643.892C659.297 645.038 662.177 646.468 664.395 648.224L664.829 648.579L664.831 648.58C667.087 650.48 669 653.141 669 656.5V721.5C669 724.65 667.318 727.185 665.253 729.056L664.835 729.421C662.702 731.221 659.889 732.691 656.729 733.875L656.093 734.108C649.227 736.56 640.001 738 630 738C620.003 738 610.772 736.561 603.906 734.108H603.907C600.703 732.962 597.823 731.532 595.605 729.776L595.171 729.421L595.169 729.42L594.751 729.055C592.682 727.185 591 724.65 591 721.5V656.5C591 653.35 592.682 650.815 594.747 648.944L595.165 648.579C597.44 646.659 600.489 645.114 603.907 643.892L603.906 643.891C610.772 641.438 619.999 640 630 640ZM630 648C620.958 648 612.916 649.277 607.15 651.236L606.6 651.428L606.599 651.429C603.865 652.405 601.869 653.468 600.579 654.483L600.33 654.686L600.326 654.689C600.055 654.921 599.791 655.162 599.594 655.415C599.393 655.672 599.184 656.037 599.184 656.5C599.184 656.963 599.393 657.328 599.594 657.585C599.742 657.774 599.927 657.957 600.125 658.135L600.326 658.311L600.332 658.316C601.606 659.385 603.675 660.53 606.599 661.572V661.571C612.398 663.644 620.667 665 630 665C639.042 665 647.084 663.723 652.85 661.764L653.4 661.572L653.401 661.571C656.136 660.594 658.132 659.527 659.421 658.512L659.67 658.31L659.672 658.308C659.944 658.077 660.207 657.836 660.405 657.583C660.607 657.326 660.816 656.961 660.816 656.498C660.816 656.034 660.606 655.67 660.404 655.413C660.256 655.224 660.07 655.041 659.872 654.865L659.67 654.69C658.395 653.615 656.324 652.47 653.401 651.428H653.4C647.601 649.355 639.333 648 630 648Z" fill="#82D1F5" stroke="#006CA9" stroke-width="2"/>
<path d="M810 531C819.996 531 829.227 532.439 836.093 534.891V534.892C839.297 536.038 842.177 537.468 844.395 539.224L844.829 539.579L844.831 539.58C847.087 541.48 849 544.141 849 547.5V612.5C849 615.65 847.318 618.185 845.253 620.056L844.835 620.421C842.702 622.221 839.889 623.691 836.729 624.875L836.093 625.108C829.227 627.56 820.001 629 810 629C800.003 629 790.772 627.561 783.906 625.108H783.907C780.703 623.962 777.823 622.532 775.605 620.776L775.171 620.421L775.169 620.42L774.751 620.055C772.682 618.185 771 615.65 771 612.5V547.5C771 544.35 772.682 541.815 774.747 539.944L775.165 539.579C777.44 537.659 780.489 536.114 783.907 534.892L783.906 534.891C790.772 532.438 799.999 531 810 531ZM810 539C800.958 539 792.916 540.277 787.15 542.236L786.6 542.428L786.599 542.429C783.865 543.405 781.869 544.468 780.579 545.483L780.33 545.686L780.326 545.689C780.055 545.921 779.791 546.162 779.594 546.415C779.393 546.672 779.184 547.037 779.184 547.5C779.184 547.963 779.393 548.328 779.594 548.585C779.742 548.774 779.927 548.957 780.125 549.135L780.326 549.311L780.332 549.316C781.606 550.385 783.675 551.53 786.599 552.572V552.571C792.398 554.644 800.667 556 810 556C819.042 556 827.084 554.723 832.85 552.764L833.4 552.572L833.401 552.571C836.136 551.594 838.132 550.527 839.421 549.512L839.67 549.31L839.672 549.308C839.944 549.077 840.207 548.836 840.405 548.583C840.607 548.326 840.816 547.961 840.816 547.498C840.816 547.034 840.606 546.67 840.404 546.413C840.256 546.224 840.07 546.041 839.872 545.865L839.67 545.69C838.395 544.615 836.324 543.47 833.401 542.428H833.4C827.601 540.355 819.333 539 810 539Z" fill="#82D1F5" stroke="#006CA9" stroke-width="2"/>
<path d="M510 531C519.996 531 529.227 532.439 536.093 534.891V534.892C539.297 536.038 542.177 537.468 544.395 539.224L544.829 539.579L544.831 539.58C547.087 541.48 549 544.141 549 547.5V612.5C549 615.65 547.318 618.185 545.253 620.056L544.835 620.421C542.702 622.221 539.889 623.691 536.729 624.875L536.093 625.108C529.227 627.56 520.001 629 510 629C500.003 629 490.772 627.561 483.906 625.108H483.907C480.703 623.962 477.823 622.532 475.605 620.776L475.171 620.421L475.169 620.42L474.751 620.055C472.682 618.185 471 615.65 471 612.5V547.5C471 544.35 472.682 541.815 474.747 539.944L475.165 539.579C477.44 537.659 480.489 536.114 483.907 534.892L483.906 534.891C490.772 532.438 499.999 531 510 531ZM510 539C500.958 539 492.916 540.277 487.15 542.236L486.6 542.428L486.599 542.429C483.865 543.405 481.869 544.468 480.579 545.483L480.33 545.686L480.326 545.689C480.055 545.921 479.791 546.162 479.594 546.415C479.393 546.672 479.184 547.037 479.184 547.5C479.184 547.963 479.393 548.328 479.594 548.585C479.742 548.774 479.927 548.957 480.125 549.135L480.326 549.311L480.332 549.316C481.606 550.385 483.675 551.53 486.599 552.572V552.571C492.398 554.644 500.667 556 510 556C519.042 556 527.084 554.723 532.85 552.764L533.4 552.572L533.401 552.571C536.136 551.594 538.132 550.527 539.421 549.512L539.67 549.31L539.672 549.308C539.944 549.077 540.207 548.836 540.405 548.583C540.607 548.326 540.816 547.961 540.816 547.498C540.816 547.034 540.606 546.67 540.404 546.413C540.256 546.224 540.07 546.041 539.872 545.865L539.67 545.69C538.395 544.615 536.324 543.47 533.401 542.428H533.4C527.601 540.355 519.333 539 510 539Z" fill="#82D1F5" stroke="#006CA9" stroke-width="2"/>
<path d="M660 531C669.996 531 679.227 532.439 686.093 534.891V534.892C689.297 536.038 692.177 537.468 694.395 539.224L694.829 539.579L694.831 539.58C697.087 541.48 699 544.141 699 547.5V612.5C699 615.65 697.318 618.185 695.253 620.056L694.835 620.421C692.702 622.221 689.889 623.691 686.729 624.875L686.093 625.108C679.227 627.56 670.001 629 660 629C650.003 629 640.772 627.561 633.906 625.108H633.907C630.703 623.962 627.823 622.532 625.605 620.776L625.171 620.421L625.169 620.42L624.751 620.055C622.682 618.185 621 615.65 621 612.5V547.5C621 544.35 622.682 541.815 624.747 539.944L625.165 539.579C627.44 537.659 630.489 536.114 633.907 534.892L633.906 534.891C640.772 532.438 649.999 531 660 531ZM660 539C650.958 539 642.916 540.277 637.15 542.236L636.6 542.428L636.599 542.429C633.865 543.405 631.869 544.468 630.579 545.483L630.33 545.686L630.326 545.689C630.055 545.921 629.791 546.162 629.594 546.415C629.393 546.672 629.184 547.037 629.184 547.5C629.184 547.963 629.393 548.328 629.594 548.585C629.742 548.774 629.927 548.957 630.125 549.135L630.326 549.311L630.332 549.316C631.606 550.385 633.675 551.53 636.599 552.572V552.571C642.398 554.644 650.667 556 660 556C669.042 556 677.084 554.723 682.85 552.764L683.4 552.572L683.401 552.571C686.136 551.594 688.132 550.527 689.421 549.512L689.67 549.31L689.672 549.308C689.944 549.077 690.207 548.836 690.405 548.583C690.607 548.326 690.816 547.961 690.816 547.498C690.816 547.034 690.606 546.67 690.404 546.413C690.256 546.224 690.07 546.041 689.872 545.865L689.67 545.69C688.395 544.615 686.324 543.47 683.401 542.428H683.4C677.601 540.355 669.333 539 660 539Z" fill="#82D1F5" stroke="#006CA9" stroke-width="2"/>
<path d="M840 431C849.996 431 859.227 432.439 866.093 434.891V434.892C869.297 436.038 872.177 437.468 874.395 439.224L874.829 439.579L874.831 439.58C877.087 441.48 879 444.141 879 447.5V512.5C879 515.65 877.318 518.185 875.253 520.056L874.835 520.421C872.702 522.221 869.889 523.691 866.729 524.875L866.093 525.108C859.227 527.56 850.001 529 840 529C830.003 529 820.772 527.561 813.906 525.108H813.907C810.703 523.962 807.823 522.532 805.605 520.776L805.171 520.421L805.169 520.42L804.751 520.055C802.682 518.185 801 515.65 801 512.5V447.5C801 444.35 802.682 441.815 804.747 439.944L805.165 439.579C807.44 437.659 810.489 436.114 813.907 434.892L813.906 434.891C820.772 432.438 829.999 431 840 431ZM840 439C830.958 439 822.916 440.277 817.15 442.236L816.6 442.428L816.599 442.429C813.865 443.405 811.869 444.468 810.579 445.483L810.33 445.686L810.326 445.689C810.055 445.921 809.791 446.162 809.594 446.415C809.393 446.672 809.184 447.037 809.184 447.5C809.184 447.963 809.393 448.328 809.594 448.585C809.742 448.774 809.927 448.957 810.125 449.135L810.326 449.311L810.332 449.316C811.606 450.385 813.675 451.53 816.599 452.572V452.571C822.398 454.644 830.667 456 840 456C849.042 456 857.084 454.723 862.85 452.764L863.4 452.572L863.401 452.571C866.136 451.594 868.132 450.527 869.421 449.512L869.67 449.31L869.672 449.308C869.944 449.077 870.207 448.836 870.405 448.583C870.607 448.326 870.816 447.961 870.816 447.498C870.816 447.034 870.606 446.67 870.404 446.413C870.256 446.224 870.07 446.041 869.872 445.865L869.67 445.69C868.395 444.615 866.324 443.47 863.401 442.428H863.4C857.601 440.355 849.333 439 840 439Z" fill="#82D1F5" stroke="#006CA9" stroke-width="2"/>
<path d="M540 431C549.996 431 559.227 432.439 566.093 434.891V434.892C569.297 436.038 572.177 437.468 574.395 439.224L574.829 439.579L574.831 439.58C577.087 441.48 579 444.141 579 447.5V512.5C579 515.65 577.318 518.185 575.253 520.056L574.835 520.421C572.702 522.221 569.889 523.691 566.729 524.875L566.093 525.108C559.227 527.56 550.001 529 540 529C530.003 529 520.772 527.561 513.906 525.108H513.907C510.703 523.962 507.823 522.532 505.605 520.776L505.171 520.421L505.169 520.42L504.751 520.055C502.682 518.185 501 515.65 501 512.5V447.5C501 444.35 502.682 441.815 504.747 439.944L505.165 439.579C507.44 437.659 510.489 436.114 513.907 434.892L513.906 434.891C520.772 432.438 529.999 431 540 431ZM540 439C530.958 439 522.916 440.277 517.15 442.236L516.6 442.428L516.599 442.429C513.865 443.405 511.869 444.468 510.579 445.483L510.33 445.686L510.326 445.689C510.055 445.921 509.791 446.162 509.594 446.415C509.393 446.672 509.184 447.037 509.184 447.5C509.184 447.963 509.393 448.328 509.594 448.585C509.742 448.774 509.927 448.957 510.125 449.135L510.326 449.311L510.332 449.316C511.606 450.385 513.675 451.53 516.599 452.572V452.571C522.398 454.644 530.667 456 540 456C549.042 456 557.084 454.723 562.85 452.764L563.4 452.572L563.401 452.571C566.136 451.594 568.132 450.527 569.421 449.512L569.67 449.31L569.672 449.308C569.944 449.077 570.207 448.836 570.405 448.583C570.607 448.326 570.816 447.961 570.816 447.498C570.816 447.034 570.606 446.67 570.404 446.413C570.256 446.224 570.07 446.041 569.872 445.865L569.67 445.69C568.395 444.615 566.324 443.47 563.401 442.428H563.4C557.601 440.355 549.333 439 540 439Z" fill="#82D1F5" stroke="#006CA9" stroke-width="2"/>
<path d="M690 431C699.996 431 709.227 432.439 716.093 434.891V434.892C719.297 436.038 722.177 437.468 724.395 439.224L724.829 439.579L724.831 439.58C727.087 441.48 729 444.141 729 447.5V512.5C729 515.65 727.318 518.185 725.253 520.056L724.835 520.421C722.702 522.221 719.889 523.691 716.729 524.875L716.093 525.108C709.227 527.56 700.001 529 690 529C680.003 529 670.772 527.561 663.906 525.108H663.907C660.703 523.962 657.823 522.532 655.605 520.776L655.171 520.421L655.169 520.42L654.751 520.055C652.682 518.185 651 515.65 651 512.5V447.5C651 444.35 652.682 441.815 654.747 439.944L655.165 439.579C657.44 437.659 660.489 436.114 663.907 434.892L663.906 434.891C670.772 432.438 679.999 431 690 431ZM690 439C680.958 439 672.916 440.277 667.15 442.236L666.6 442.428L666.599 442.429C663.865 443.405 661.869 444.468 660.579 445.483L660.33 445.686L660.326 445.689C660.055 445.921 659.791 446.162 659.594 446.415C659.393 446.672 659.184 447.037 659.184 447.5C659.184 447.963 659.393 448.328 659.594 448.585C659.742 448.774 659.927 448.957 660.125 449.135L660.326 449.311L660.332 449.316C661.606 450.385 663.675 451.53 666.599 452.572V452.571C672.398 454.644 680.667 456 690 456C699.042 456 707.084 454.723 712.85 452.764L713.4 452.572L713.401 452.571C716.136 451.594 718.132 450.527 719.421 449.512L719.67 449.31L719.672 449.308C719.944 449.077 720.207 448.836 720.405 448.583C720.607 448.326 720.816 447.961 720.816 447.498C720.816 447.034 720.606 446.67 720.404 446.413C720.256 446.224 720.07 446.041 719.872 445.865L719.67 445.69C718.395 444.615 716.324 443.47 713.401 442.428H713.4C707.601 440.355 699.333 439 690 439Z" fill="#82D1F5" stroke="#006CA9" stroke-width="2"/>
<path d="M870 331C879.996 331 889.227 332.439 896.093 334.891V334.892C899.297 336.038 902.177 337.468 904.395 339.224L904.829 339.579L904.831 339.58C907.087 341.48 909 344.141 909 347.5V412.5C909 415.65 907.318 418.185 905.253 420.056L904.835 420.421C902.702 422.221 899.889 423.691 896.729 424.875L896.093 425.108C889.227 427.56 880.001 429 870 429C860.003 429 850.772 427.561 843.906 425.108H843.907C840.703 423.962 837.823 422.532 835.605 420.776L835.171 420.421L835.169 420.42L834.751 420.055C832.682 418.185 831 415.65 831 412.5V347.5C831 344.35 832.682 341.815 834.747 339.944L835.165 339.579C837.44 337.659 840.489 336.114 843.907 334.892L843.906 334.891C850.772 332.438 859.999 331 870 331ZM870 339C860.958 339 852.916 340.277 847.15 342.236L846.6 342.428L846.599 342.429C843.865 343.405 841.869 344.468 840.579 345.483L840.33 345.686L840.326 345.689C840.055 345.921 839.791 346.162 839.594 346.415C839.393 346.672 839.184 347.037 839.184 347.5C839.184 347.963 839.393 348.328 839.594 348.585C839.742 348.774 839.927 348.957 840.125 349.135L840.326 349.311L840.332 349.316C841.606 350.385 843.675 351.53 846.599 352.572V352.571C852.398 354.644 860.667 356 870 356C879.042 356 887.084 354.723 892.85 352.764L893.4 352.572L893.401 352.571C896.136 351.594 898.132 350.527 899.421 349.512L899.67 349.31L899.672 349.308C899.944 349.077 900.207 348.836 900.405 348.583C900.607 348.326 900.816 347.961 900.816 347.498C900.816 347.034 900.606 346.67 900.404 346.413C900.256 346.224 900.07 346.041 899.872 345.865L899.67 345.69C898.395 344.615 896.324 343.47 893.401 342.428H893.4C887.601 340.355 879.333 339 870 339Z" fill="#82D1F5" stroke="#006CA9" stroke-width="2"/>
<path d="M570 331C579.996 331 589.227 332.439 596.093 334.891V334.892C599.297 336.038 602.177 337.468 604.395 339.224L604.829 339.579L604.831 339.58C607.087 341.48 609 344.141 609 347.5V412.5C609 415.65 607.318 418.185 605.253 420.056L604.835 420.421C602.702 422.221 599.889 423.691 596.729 424.875L596.093 425.108C589.227 427.56 580.001 429 570 429C560.003 429 550.772 427.561 543.906 425.108H543.907C540.703 423.962 537.823 422.532 535.605 420.776L535.171 420.421L535.169 420.42L534.751 420.055C532.682 418.185 531 415.65 531 412.5V347.5C531 344.35 532.682 341.815 534.747 339.944L535.165 339.579C537.44 337.659 540.489 336.114 543.907 334.892L543.906 334.891C550.772 332.438 559.999 331 570 331ZM570 339C560.958 339 552.916 340.277 547.15 342.236L546.6 342.428L546.599 342.429C543.865 343.405 541.869 344.468 540.579 345.483L540.33 345.686L540.326 345.689C540.055 345.921 539.791 346.162 539.594 346.415C539.393 346.672 539.184 347.037 539.184 347.5C539.184 347.963 539.393 348.328 539.594 348.585C539.742 348.774 539.927 348.957 540.125 349.135L540.326 349.311L540.332 349.316C541.606 350.385 543.675 351.53 546.599 352.572V352.571C552.398 354.644 560.667 356 570 356C579.042 356 587.084 354.723 592.85 352.764L593.4 352.572L593.401 352.571C596.136 351.594 598.132 350.527 599.421 349.512L599.67 349.31L599.672 349.308C599.944 349.077 600.207 348.836 600.405 348.583C600.607 348.326 600.816 347.961 600.816 347.498C600.816 347.034 600.606 346.67 600.404 346.413C600.256 346.224 600.07 346.041 599.872 345.865L599.67 345.69C598.395 344.615 596.324 343.47 593.401 342.428H593.4C587.601 340.355 579.333 339 570 339Z" fill="#82D1F5" stroke="#006CA9" stroke-width="2"/>
<path d="M900 231C909.996 231 919.227 232.439 926.093 234.891V234.892C929.297 236.038 932.177 237.468 934.395 239.224L934.829 239.579L934.831 239.58C937.087 241.48 939 244.141 939 247.5V312.5C939 315.65 937.318 318.185 935.253 320.056L934.835 320.421C932.702 322.221 929.889 323.691 926.729 324.875L926.093 325.108C919.227 327.56 910.001 329 900 329C890.003 329 880.772 327.561 873.906 325.108H873.907C870.703 323.962 867.823 322.532 865.605 320.776L865.171 320.421L865.169 320.42L864.751 320.055C862.682 318.185 861 315.65 861 312.5V247.5C861 244.35 862.682 241.815 864.747 239.944L865.165 239.579C867.44 237.659 870.489 236.114 873.907 234.892L873.906 234.891C880.772 232.438 889.999 231 900 231ZM900 239C890.958 239 882.916 240.277 877.15 242.236L876.6 242.428L876.599 242.429C873.865 243.405 871.869 244.468 870.579 245.483L870.33 245.686L870.326 245.689C870.055 245.921 869.791 246.162 869.594 246.415C869.393 246.672 869.184 247.037 869.184 247.5C869.184 247.963 869.393 248.328 869.594 248.585C869.742 248.774 869.927 248.957 870.125 249.135L870.326 249.311L870.332 249.316C871.606 250.385 873.675 251.53 876.599 252.572V252.571C882.398 254.644 890.667 256 900 256C909.042 256 917.084 254.723 922.85 252.764L923.4 252.572L923.401 252.571C926.136 251.594 928.132 250.527 929.421 249.512L929.67 249.31L929.672 249.308C929.944 249.077 930.207 248.836 930.405 248.583C930.607 248.326 930.816 247.961 930.816 247.498C930.816 247.034 930.606 246.67 930.404 246.413C930.256 246.224 930.07 246.041 929.872 245.865L929.67 245.69C928.395 244.615 926.324 243.47 923.401 242.428H923.4C917.601 240.355 909.333 239 900 239Z" fill="#82D1F5" stroke="#006CA9" stroke-width="2"/>
<path d="M600 231C609.996 231 619.227 232.439 626.093 234.891V234.892C629.297 236.038 632.177 237.468 634.395 239.224L634.829 239.579L634.831 239.58C637.087 241.48 639 244.141 639 247.5V312.5C639 315.65 637.318 318.185 635.253 320.056L634.835 320.421C632.702 322.221 629.889 323.691 626.729 324.875L626.093 325.108C619.227 327.56 610.001 329 600 329C590.003 329 580.772 327.561 573.906 325.108H573.907C570.703 323.962 567.823 322.532 565.605 320.776L565.171 320.421L565.169 320.42L564.751 320.055C562.682 318.185 561 315.65 561 312.5V247.5C561 244.35 562.682 241.815 564.747 239.944L565.165 239.579C567.44 237.659 570.489 236.114 573.907 234.892L573.906 234.891C580.772 232.438 589.999 231 600 231ZM600 239C590.958 239 582.916 240.277 577.15 242.236L576.6 242.428L576.599 242.429C573.865 243.405 571.869 244.468 570.579 245.483L570.33 245.686L570.326 245.689C570.055 245.921 569.791 246.162 569.594 246.415C569.393 246.672 569.184 247.037 569.184 247.5C569.184 247.963 569.393 248.328 569.594 248.585C569.742 248.774 569.927 248.957 570.125 249.135L570.326 249.311L570.332 249.316C571.606 250.385 573.675 251.53 576.599 252.572V252.571C582.398 254.644 590.667 256 600 256C609.042 256 617.084 254.723 622.85 252.764L623.4 252.572L623.401 252.571C626.136 251.594 628.132 250.527 629.421 249.512L629.67 249.31L629.672 249.308C629.944 249.077 630.207 248.836 630.405 248.583C630.607 248.326 630.816 247.961 630.816 247.498C630.816 247.034 630.606 246.67 630.404 246.413C630.256 246.224 630.07 246.041 629.872 245.865L629.67 245.69C628.395 244.615 626.324 243.47 623.401 242.428H623.4C617.601 240.355 609.333 239 600 239Z" fill="#82D1F5" stroke="#006CA9" stroke-width="2"/>
<path d="M750 231C759.996 231 769.227 232.439 776.093 234.891V234.892C779.297 236.038 782.177 237.468 784.395 239.224L784.829 239.579L784.831 239.58C787.087 241.48 789 244.141 789 247.5V312.5C789 315.65 787.318 318.185 785.253 320.056L784.835 320.421C782.702 322.221 779.889 323.691 776.729 324.875L776.093 325.108C769.227 327.56 760.001 329 750 329C740.003 329 730.772 327.561 723.906 325.108H723.907C720.703 323.962 717.823 322.532 715.605 320.776L715.171 320.421L715.169 320.42L714.751 320.055C712.682 318.185 711 315.65 711 312.5V247.5C711 244.35 712.682 241.815 714.747 239.944L715.165 239.579C717.44 237.659 720.489 236.114 723.907 234.892L723.906 234.891C730.772 232.438 739.999 231 750 231ZM750 239C740.958 239 732.916 240.277 727.15 242.236L726.6 242.428L726.599 242.429C723.865 243.405 721.869 244.468 720.579 245.483L720.33 245.686L720.326 245.689C720.055 245.921 719.791 246.162 719.594 246.415C719.393 246.672 719.184 247.037 719.184 247.5C719.184 247.963 719.393 248.328 719.594 248.585C719.742 248.774 719.927 248.957 720.125 249.135L720.326 249.311L720.332 249.316C721.606 250.385 723.675 251.53 726.599 252.572V252.571C732.398 254.644 740.667 256 750 256C759.042 256 767.084 254.723 772.85 252.764L773.4 252.572L773.401 252.571C776.136 251.594 778.132 250.527 779.421 249.512L779.67 249.31L779.672 249.308C779.944 249.077 780.207 248.836 780.405 248.583C780.607 248.326 780.816 247.961 780.816 247.498C780.816 247.034 780.606 246.67 780.404 246.413C780.256 246.224 780.07 246.041 779.872 245.865L779.67 245.69C778.395 244.615 776.324 243.47 773.401 242.428H773.4C767.601 240.355 759.333 239 750 239Z" fill="#82D1F5" stroke="#006CA9" stroke-width="2"/>
<ellipse cx="720" cy="404.5" rx="45" ry="18.5" fill="#006CA9"/>
<ellipse cx="355" cy="1169.5" rx="45" ry="18.5" fill="#006CA9"/>
<path d="M40 1089C49.9961 1089 59.2268 1090.44 66.0928 1092.89V1092.89C69.2973 1094.04 72.1769 1095.47 74.3945 1097.22L74.8291 1097.58L74.8311 1097.58C77.0868 1099.48 79 1102.14 79 1105.5V1170.5C79 1173.65 77.3183 1176.19 75.2529 1178.06L74.835 1178.42C72.7019 1180.22 69.889 1181.69 66.7295 1182.88L66.0928 1183.11C59.2267 1185.56 50.0012 1187 40 1187C30.0034 1187 20.7724 1185.56 13.9062 1183.11H13.9072C10.7027 1181.96 7.82315 1180.53 5.60547 1178.78L5.1709 1178.42L5.16895 1178.42L4.75098 1178.05C2.68197 1176.18 1 1173.65 1 1170.5V1105.5C1 1102.35 2.68168 1099.81 4.74707 1097.94L5.16504 1097.58C7.44027 1095.66 10.4894 1094.11 13.9072 1092.89L13.9062 1092.89C20.7724 1090.44 29.9986 1089 40 1089ZM40 1097C30.9579 1097 22.9156 1098.28 17.1504 1100.24L16.5996 1100.43L16.5986 1100.43C13.8654 1101.41 11.8692 1102.47 10.5791 1103.48L10.3301 1103.69L10.3262 1103.69C10.0546 1103.92 9.79126 1104.16 9.59375 1104.42C9.39269 1104.67 9.18359 1105.04 9.18359 1105.5C9.18359 1105.96 9.39269 1106.33 9.59375 1106.58C9.74187 1106.77 9.92722 1106.96 10.125 1107.13L10.3262 1107.31L10.332 1107.32C11.6056 1108.39 13.6755 1109.53 16.5986 1110.57V1110.57C22.3976 1112.64 30.6666 1114 40 1114C49.0421 1114 57.0844 1112.72 62.8496 1110.76L63.4004 1110.57L63.4014 1110.57C66.1359 1109.59 68.1316 1108.53 69.4209 1107.51L69.6699 1107.31L69.6719 1107.31C69.944 1107.08 70.2073 1106.84 70.4053 1106.58C70.6066 1106.33 70.8164 1105.96 70.8164 1105.5C70.8164 1105.03 70.6064 1104.67 70.4043 1104.41C70.2556 1104.22 70.0703 1104.04 69.8721 1103.87L69.6699 1103.69C68.3953 1102.62 66.3242 1101.47 63.4014 1100.43H63.4004C57.6015 1098.36 49.3328 1097 40 1097Z" fill="#82D1F5" stroke="#006CA9" stroke-width="2"/>
<path d="M190 1089C199.996 1089 209.227 1090.44 216.093 1092.89V1092.89C219.297 1094.04 222.177 1095.47 224.395 1097.22L224.829 1097.58L224.831 1097.58C227.087 1099.48 229 1102.14 229 1105.5V1170.5C229 1173.65 227.318 1176.19 225.253 1178.06L224.835 1178.42C222.702 1180.22 219.889 1181.69 216.729 1182.88L216.093 1183.11C209.227 1185.56 200.001 1187 190 1187C180.003 1187 170.772 1185.56 163.906 1183.11H163.907C160.703 1181.96 157.823 1180.53 155.605 1178.78L155.171 1178.42L155.169 1178.42L154.751 1178.05C152.682 1176.18 151 1173.65 151 1170.5V1105.5C151 1102.35 152.682 1099.81 154.747 1097.94L155.165 1097.58C157.44 1095.66 160.489 1094.11 163.907 1092.89L163.906 1092.89C170.772 1090.44 179.999 1089 190 1089ZM190 1097C180.958 1097 172.916 1098.28 167.15 1100.24L166.6 1100.43L166.599 1100.43C163.865 1101.41 161.869 1102.47 160.579 1103.48L160.33 1103.69L160.326 1103.69C160.055 1103.92 159.791 1104.16 159.594 1104.42C159.393 1104.67 159.184 1105.04 159.184 1105.5C159.184 1105.96 159.393 1106.33 159.594 1106.58C159.742 1106.77 159.927 1106.96 160.125 1107.13L160.326 1107.31L160.332 1107.32C161.606 1108.39 163.675 1109.53 166.599 1110.57V1110.57C172.398 1112.64 180.667 1114 190 1114C199.042 1114 207.084 1112.72 212.85 1110.76L213.4 1110.57L213.401 1110.57C216.136 1109.59 218.132 1108.53 219.421 1107.51L219.67 1107.31L219.672 1107.31C219.944 1107.08 220.207 1106.84 220.405 1106.58C220.607 1106.33 220.816 1105.96 220.816 1105.5C220.816 1105.03 220.606 1104.67 220.404 1104.41C220.256 1104.22 220.07 1104.04 219.872 1103.87L219.67 1103.69C218.395 1102.62 216.324 1101.47 213.401 1100.43H213.4C207.601 1098.36 199.333 1097 190 1097Z" fill="#82D1F5" stroke="#006CA9" stroke-width="2"/>
<ellipse cx="905" cy="1169.5" rx="45" ry="18.5" fill="#006CA9"/>
<ellipse cx="580" cy="1169.5" rx="45" ry="18.5" fill="#006CA9"/>
<path d="M740 934C749.996 934 759.227 935.439 766.093 937.891V937.892C769.297 939.038 772.177 940.468 774.395 942.224L774.829 942.579L774.831 942.58C777.087 944.48 779 947.141 779 950.5V1015.5C779 1018.65 777.318 1021.19 775.253 1023.06L774.835 1023.42C772.702 1025.22 769.889 1026.69 766.729 1027.88L766.093 1028.11C759.227 1030.56 750.001 1032 740 1032C730.003 1032 720.772 1030.56 713.906 1028.11H713.907C710.703 1026.96 707.823 1025.53 705.605 1023.78L705.171 1023.42L705.169 1023.42L704.751 1023.05C702.682 1021.18 701 1018.65 701 1015.5V950.5C701 947.35 702.682 944.815 704.747 942.944L705.165 942.579C707.44 940.659 710.489 939.114 713.907 937.892L713.906 937.891C720.772 935.438 729.999 934 740 934ZM740 942C730.958 942 722.916 943.277 717.15 945.236L716.6 945.428L716.599 945.429C713.865 946.405 711.869 947.468 710.579 948.483L710.33 948.686L710.326 948.689C710.055 948.921 709.791 949.162 709.594 949.415C709.393 949.672 709.184 950.037 709.184 950.5C709.184 950.963 709.393 951.328 709.594 951.585C709.742 951.774 709.927 951.957 710.125 952.135L710.326 952.311L710.332 952.316C711.606 953.385 713.675 954.53 716.599 955.572V955.571C722.398 957.644 730.667 959 740 959C749.042 959 757.084 957.723 762.85 955.764L763.4 955.572L763.401 955.571C766.136 954.594 768.132 953.527 769.421 952.512L769.67 952.31L769.672 952.308C769.944 952.077 770.207 951.836 770.405 951.583C770.607 951.326 770.816 950.961 770.816 950.498C770.816 950.034 770.606 949.67 770.404 949.413C770.256 949.224 770.07 949.041 769.872 948.865L769.67 948.69C768.395 947.615 766.324 946.47 763.401 945.428H763.4C757.601 943.355 749.333 942 740 942Z" fill="#82D1F5" stroke="#006CA9" stroke-width="2"/>
<path d="M740 1089C749.996 1089 759.227 1090.44 766.093 1092.89V1092.89C769.297 1094.04 772.177 1095.47 774.395 1097.22L774.829 1097.58L774.831 1097.58C777.087 1099.48 779 1102.14 779 1105.5V1170.5C779 1173.65 777.318 1176.19 775.253 1178.06L774.835 1178.42C772.702 1180.22 769.889 1181.69 766.729 1182.88L766.093 1183.11C759.227 1185.56 750.001 1187 740 1187C730.003 1187 720.772 1185.56 713.906 1183.11H713.907C710.703 1181.96 707.823 1180.53 705.605 1178.78L705.171 1178.42L705.169 1178.42L704.751 1178.05C702.682 1176.18 701 1173.65 701 1170.5V1105.5C701 1102.35 702.682 1099.81 704.747 1097.94L705.165 1097.58C707.44 1095.66 710.489 1094.11 713.907 1092.89L713.906 1092.89C720.772 1090.44 729.999 1089 740 1089ZM740 1097C730.958 1097 722.916 1098.28 717.15 1100.24L716.6 1100.43L716.599 1100.43C713.865 1101.41 711.869 1102.47 710.579 1103.48L710.33 1103.69L710.326 1103.69C710.055 1103.92 709.791 1104.16 709.594 1104.42C709.393 1104.67 709.184 1105.04 709.184 1105.5C709.184 1105.96 709.393 1106.33 709.594 1106.58C709.742 1106.77 709.927 1106.96 710.125 1107.13L710.326 1107.31L710.332 1107.32C711.606 1108.39 713.675 1109.53 716.599 1110.57V1110.57C722.398 1112.64 730.667 1114 740 1114C749.042 1114 757.084 1112.72 762.85 1110.76L763.4 1110.57L763.401 1110.57C766.136 1109.59 768.132 1108.53 769.421 1107.51L769.67 1107.31L769.672 1107.31C769.944 1107.08 770.207 1106.84 770.405 1106.58C770.607 1106.33 770.816 1105.96 770.816 1105.5C770.816 1105.03 770.606 1104.67 770.404 1104.41C770.256 1104.22 770.07 1104.04 769.872 1103.87L769.67 1103.69C768.395 1102.62 766.324 1101.47 763.401 1100.43H763.4C757.601 1098.36 749.333 1097 740 1097Z" fill="#82D1F5" stroke="#006CA9" stroke-width="2"/>
<path d="M473.764 1185L468.295 1179.6L494.716 1153.18L468.295 1126.83L473.764 1121.36L505.582 1153.18L473.764 1185ZM432.5 1165.54V1157.73H495.781L487.969 1165.54H432.5ZM432.5 1148.64V1140.82H487.969L495.781 1148.64H432.5Z" fill="#737370"/>
<path d="M1023.76 1182L1018.3 1176.6L1044.72 1150.18L1018.3 1123.83L1023.76 1118.36L1055.58 1150.18L1023.76 1182ZM982.5 1162.54V1154.73H1045.78L1037.97 1162.54H982.5ZM982.5 1145.64V1137.82H1037.97L1045.78 1145.64H982.5Z" fill="#737370"/>
<path d="M690.991 1005.86C690.915 1005.32 690.41 1004.93 689.863 1005.01L680.948 1006.24C680.401 1006.31 680.018 1006.82 680.094 1007.37C680.169 1007.91 680.674 1008.3 681.221 1008.22L689.146 1007.13L690.239 1015.05C690.315 1015.6 690.819 1015.98 691.366 1015.91C691.913 1015.83 692.296 1015.33 692.22 1014.78L690.991 1005.86ZM590 1138L590.797 1138.6L690.797 1006.6L690 1006L689.203 1005.4L589.203 1137.4L590 1138Z" fill="#737370"/>
<path d="M889.863 1138.99C890.41 1139.07 890.915 1138.68 890.991 1138.14L892.22 1129.22C892.296 1128.67 891.913 1128.17 891.366 1128.09C890.819 1128.02 890.315 1128.4 890.239 1128.95L889.146 1136.87L881.221 1135.78C880.674 1135.7 880.169 1136.09 880.094 1136.63C880.018 1137.18 880.401 1137.69 880.948 1137.76L889.863 1138.99ZM790 1006L789.203 1006.6L889.203 1138.6L890 1138L890.797 1137.4L790.797 1005.4L790 1006Z" fill="#737370"/>
<path d="M734.293 1331.71C734.683 1332.1 735.317 1332.1 735.707 1331.71L742.071 1325.34C742.462 1324.95 742.462 1324.32 742.071 1323.93C741.681 1323.54 741.047 1323.54 740.657 1323.93L735 1329.59L729.343 1323.93C728.953 1323.54 728.319 1323.54 727.929 1323.93C727.538 1324.32 727.538 1324.95 727.929 1325.34L734.293 1331.71ZM735 1209H734V1331H735H736V1209H735Z" fill="#737370"/>
<ellipse cx="1285" cy="1169.5" rx="45" ry="18.5" fill="#006CA9"/>
<ellipse cx="1125" cy="1169.5" rx="45" ry="18.5" fill="#006CA9"/>
<path d="M1440 1089C1450 1089 1459.23 1090.44 1466.09 1092.89V1092.89C1469.3 1094.04 1472.18 1095.47 1474.39 1097.22L1474.83 1097.58L1474.83 1097.58C1477.09 1099.48 1479 1102.14 1479 1105.5V1170.5C1479 1173.65 1477.32 1176.19 1475.25 1178.06L1474.83 1178.42C1472.7 1180.22 1469.89 1181.69 1466.73 1182.88L1466.09 1183.11C1459.23 1185.56 1450 1187 1440 1187C1430 1187 1420.77 1185.56 1413.91 1183.11H1413.91C1410.7 1181.96 1407.82 1180.53 1405.61 1178.78L1405.17 1178.42L1405.17 1178.42L1404.75 1178.05C1402.68 1176.18 1401 1173.65 1401 1170.5V1105.5C1401 1102.35 1402.68 1099.81 1404.75 1097.94L1405.17 1097.58C1407.44 1095.66 1410.49 1094.11 1413.91 1092.89L1413.91 1092.89C1420.77 1090.44 1430 1089 1440 1089ZM1440 1097C1430.96 1097 1422.92 1098.28 1417.15 1100.24L1416.6 1100.43L1416.6 1100.43C1413.87 1101.41 1411.87 1102.47 1410.58 1103.48L1410.33 1103.69L1410.33 1103.69C1410.05 1103.92 1409.79 1104.16 1409.59 1104.42C1409.39 1104.67 1409.18 1105.04 1409.18 1105.5C1409.18 1105.96 1409.39 1106.33 1409.59 1106.58C1409.74 1106.77 1409.93 1106.96 1410.12 1107.13L1410.33 1107.31L1410.33 1107.32C1411.61 1108.39 1413.68 1109.53 1416.6 1110.57V1110.57C1422.4 1112.64 1430.67 1114 1440 1114C1449.04 1114 1457.08 1112.72 1462.85 1110.76L1463.4 1110.57L1463.4 1110.57C1466.14 1109.59 1468.13 1108.53 1469.42 1107.51L1469.67 1107.31L1469.67 1107.31C1469.94 1107.08 1470.21 1106.84 1470.41 1106.58C1470.61 1106.33 1470.82 1105.96 1470.82 1105.5C1470.82 1105.03 1470.61 1104.67 1470.4 1104.41C1470.26 1104.22 1470.07 1104.04 1469.87 1103.87L1469.67 1103.69C1468.4 1102.62 1466.32 1101.47 1463.4 1100.43H1463.4C1457.6 1098.36 1449.33 1097 1440 1097Z" fill="#82D1F5" stroke="#006CA9" stroke-width="2"/>
<path d="M740 1354C749.996 1354 759.227 1355.44 766.093 1357.89V1357.89C769.297 1359.04 772.177 1360.47 774.395 1362.22L774.829 1362.58L774.831 1362.58C777.087 1364.48 779 1367.14 779 1370.5V1435.5C779 1438.65 777.318 1441.19 775.253 1443.06L774.835 1443.42C772.702 1445.22 769.889 1446.69 766.729 1447.88L766.093 1448.11C759.227 1450.56 750.001 1452 740 1452C730.003 1452 720.772 1450.56 713.906 1448.11H713.907C710.703 1446.96 707.823 1445.53 705.605 1443.78L705.171 1443.42L705.169 1443.42L704.751 1443.05C702.682 1441.18 701 1438.65 701 1435.5V1370.5C701 1367.35 702.682 1364.81 704.747 1362.94L705.165 1362.58C707.44 1360.66 710.489 1359.11 713.907 1357.89L713.906 1357.89C720.772 1355.44 729.999 1354 740 1354ZM740 1362C730.958 1362 722.916 1363.28 717.15 1365.24L716.6 1365.43L716.599 1365.43C713.865 1366.41 711.869 1367.47 710.579 1368.48L710.33 1368.69L710.326 1368.69C710.055 1368.92 709.791 1369.16 709.594 1369.42C709.393 1369.67 709.184 1370.04 709.184 1370.5C709.184 1370.96 709.393 1371.33 709.594 1371.58C709.742 1371.77 709.927 1371.96 710.125 1372.13L710.326 1372.31L710.332 1372.32C711.606 1373.39 713.675 1374.53 716.599 1375.57V1375.57C722.398 1377.64 730.667 1379 740 1379C749.042 1379 757.084 1377.72 762.85 1375.76L763.4 1375.57L763.401 1375.57C766.136 1374.59 768.132 1373.53 769.421 1372.51L769.67 1372.31L769.672 1372.31C769.944 1372.08 770.207 1371.84 770.405 1371.58C770.607 1371.33 770.816 1370.96 770.816 1370.5C770.816 1370.03 770.606 1369.67 770.404 1369.41C770.256 1369.22 770.07 1369.04 769.872 1368.87L769.67 1368.69C768.395 1367.62 766.324 1366.47 763.401 1365.43H763.4C757.601 1363.36 749.333 1362 740 1362Z" fill="#82D1F5" stroke="#006CA9" stroke-width="2"/>
<line x1="831.41" y1="1350.06" x2="645.41" y2="1477.06" stroke="#FA8F00" stroke-width="5"/>
<line x1="645.41" y1="1345.94" x2="831.41" y2="1472.94" stroke="#FA8F00" stroke-width="5"/>
</svg>
